<?xml version="1.0" encoding="UTF-8" standalone="no"?>
<!-- Created with Inkscape (http://www.inkscape.org/) -->

<svg
   xmlns:dc="http://purl.org/dc/elements/1.1/"
   xmlns:cc="http://creativecommons.org/ns#"
   xmlns:rdf="http://www.w3.org/1999/02/22-rdf-syntax-ns#"
   xmlns:svg="http://www.w3.org/2000/svg"
   xmlns="http://www.w3.org/2000/svg"
   xmlns:xlink="http://www.w3.org/1999/xlink"
   xmlns:sodipodi="http://sodipodi.sourceforge.net/DTD/sodipodi-0.dtd"
   xmlns:inkscape="http://www.inkscape.org/namespaces/inkscape"
   width="1024"
   height="500"
   viewBox="0 0 1024 499.99998"
   id="svg2"
   version="1.1"
   inkscape:version="0.91 r13725"
   sodipodi:docname="feature_graphic.svg"
   inkscape:export-filename="C:\Users\mike\Documents\GitHub\pushy-android\assets\feature_graphic.png"
   inkscape:export-xdpi="90"
   inkscape:export-ydpi="90">
  <defs
     id="defs4">
    <linearGradient
       inkscape:collect="always"
       id="linearGradient6256">
      <stop
         style="stop-color:#b3b3b3;stop-opacity:1;"
         offset="0"
         id="stop6258" />
      <stop
         style="stop-color:#f2f2f2;stop-opacity:1"
         offset="1"
         id="stop6260" />
    </linearGradient>
    <linearGradient
       inkscape:collect="always"
       id="linearGradient6248">
      <stop
         style="stop-color:#b3b3b3;stop-opacity:1;"
         offset="0"
         id="stop6250" />
      <stop
         style="stop-color:#f2f2f2;stop-opacity:1"
         offset="1"
         id="stop6252" />
    </linearGradient>
    <linearGradient
       inkscape:collect="always"
       id="linearGradient6240">
      <stop
         style="stop-color:#b3b3b3;stop-opacity:1;"
         offset="0"
         id="stop6242" />
      <stop
         style="stop-color:#f2f2f2;stop-opacity:1"
         offset="1"
         id="stop6244" />
    </linearGradient>
    <linearGradient
       inkscape:collect="always"
       id="linearGradient6232">
      <stop
         style="stop-color:#b3b3b3;stop-opacity:1;"
         offset="0"
         id="stop6234" />
      <stop
         style="stop-color:#f2f2f2;stop-opacity:1"
         offset="1"
         id="stop6236" />
    </linearGradient>
    <linearGradient
       inkscape:collect="always"
       id="linearGradient6216">
      <stop
         style="stop-color:#decd87;stop-opacity:1;"
         offset="0"
         id="stop6218" />
      <stop
         style="stop-color:#f4eed7;stop-opacity:1"
         offset="1"
         id="stop6220" />
    </linearGradient>
    <marker
       inkscape:stockid="Arrow1Send"
       orient="auto"
       refY="0.0"
       refX="0.0"
       id="marker5901"
       style="overflow:visible;"
       inkscape:isstock="true">
      <path
         id="path5903"
         d="M 0.0,0.0 L 5.0,-5.0 L -12.5,0.0 L 5.0,5.0 L 0.0,0.0 z "
         style="fill-rule:evenodd;stroke:#786721;stroke-width:1pt;stroke-opacity:1;fill:#786721;fill-opacity:1"
         transform="scale(0.2) rotate(180) translate(6,0)" />
    </marker>
    <marker
       inkscape:stockid="Arrow1Sstart"
       orient="auto"
       refY="0.0"
       refX="0.0"
       id="marker5897"
       style="overflow:visible"
       inkscape:isstock="true">
      <path
         id="path5899"
         d="M 0.0,0.0 L 5.0,-5.0 L -12.5,0.0 L 5.0,5.0 L 0.0,0.0 z "
         style="fill-rule:evenodd;stroke:#786721;stroke-width:1pt;stroke-opacity:1;fill:#786721;fill-opacity:1"
         transform="scale(0.2) translate(6,0)" />
    </marker>
    <marker
       inkscape:stockid="Arrow1Send"
       orient="auto"
       refY="0.0"
       refX="0.0"
       id="Arrow1Send"
       style="overflow:visible;"
       inkscape:isstock="true">
      <path
         id="path5520"
         d="M 0.0,0.0 L 5.0,-5.0 L -12.5,0.0 L 5.0,5.0 L 0.0,0.0 z "
         style="fill-rule:evenodd;stroke:#000000;stroke-width:1pt;stroke-opacity:1;fill:#000000;fill-opacity:1"
         transform="scale(0.2) rotate(180) translate(6,0)" />
    </marker>
    <marker
       inkscape:stockid="Arrow1Sstart"
       orient="auto"
       refY="0.0"
       refX="0.0"
       id="Arrow1Sstart"
       style="overflow:visible"
       inkscape:isstock="true">
      <path
         id="path5517"
         d="M 0.0,0.0 L 5.0,-5.0 L -12.5,0.0 L 5.0,5.0 L 0.0,0.0 z "
         style="fill-rule:evenodd;stroke:#000000;stroke-width:1pt;stroke-opacity:1;fill:#000000;fill-opacity:1"
         transform="scale(0.2) translate(6,0)" />
    </marker>
    <marker
       inkscape:stockid="Arrow1Mstart"
       orient="auto"
       refY="0.0"
       refX="0.0"
       id="Arrow1Mstart"
       style="overflow:visible"
       inkscape:isstock="true">
      <path
         id="path5511"
         d="M 0.0,0.0 L 5.0,-5.0 L -12.5,0.0 L 5.0,5.0 L 0.0,0.0 z "
         style="fill-rule:evenodd;stroke:#000000;stroke-width:1pt;stroke-opacity:1;fill:#000000;fill-opacity:1"
         transform="scale(0.4) translate(10,0)" />
    </marker>
    <marker
       inkscape:stockid="Arrow1Lstart"
       orient="auto"
       refY="0.0"
       refX="0.0"
       id="marker5765"
       style="overflow:visible"
       inkscape:isstock="true">
      <path
         id="path5767"
         d="M 0.0,0.0 L 5.0,-5.0 L -12.5,0.0 L 5.0,5.0 L 0.0,0.0 z "
         style="fill-rule:evenodd;stroke:#000000;stroke-width:1pt;stroke-opacity:1;fill:#000000;fill-opacity:1"
         transform="scale(0.8) translate(12.5,0)" />
    </marker>
    <marker
       inkscape:stockid="Arrow1Lend"
       orient="auto"
       refY="0.0"
       refX="0.0"
       id="Arrow1Lend"
       style="overflow:visible;"
       inkscape:isstock="true">
      <path
         id="path5508"
         d="M 0.0,0.0 L 5.0,-5.0 L -12.5,0.0 L 5.0,5.0 L 0.0,0.0 z "
         style="fill-rule:evenodd;stroke:#000000;stroke-width:1pt;stroke-opacity:1;fill:#000000;fill-opacity:1"
         transform="scale(0.8) rotate(180) translate(12.5,0)" />
    </marker>
    <marker
       inkscape:stockid="Arrow1Lstart"
       orient="auto"
       refY="0.0"
       refX="0.0"
       id="Arrow1Lstart"
       style="overflow:visible"
       inkscape:isstock="true">
      <path
         id="path5505"
         d="M 0.0,0.0 L 5.0,-5.0 L -12.5,0.0 L 5.0,5.0 L 0.0,0.0 z "
         style="fill-rule:evenodd;stroke:#000000;stroke-width:1pt;stroke-opacity:1;fill:#000000;fill-opacity:1"
         transform="scale(0.8) translate(12.5,0)" />
    </marker>
    <marker
       inkscape:stockid="Arrow1Sstart"
       orient="auto"
       refY="0"
       refX="0"
       id="Arrow1Sstart-5"
       style="overflow:visible"
       inkscape:isstock="true">
      <path
         inkscape:connector-curvature="0"
         id="path5517-3"
         d="M 0,0 5,-5 -12.5,0 5,5 0,0 Z"
         style="fill:#000000;fill-opacity:1;fill-rule:evenodd;stroke:#000000;stroke-width:1pt;stroke-opacity:1"
         transform="matrix(0.2,0,0,0.2,1.2,0)" />
    </marker>
    <marker
       inkscape:stockid="Arrow1Send"
       orient="auto"
       refY="0"
       refX="0"
       id="Arrow1Send-2"
       style="overflow:visible"
       inkscape:isstock="true">
      <path
         inkscape:connector-curvature="0"
         id="path5520-8"
         d="M 0,0 5,-5 -12.5,0 5,5 0,0 Z"
         style="fill:#000000;fill-opacity:1;fill-rule:evenodd;stroke:#000000;stroke-width:1pt;stroke-opacity:1"
         transform="matrix(-0.2,0,0,-0.2,-1.2,0)" />
    </marker>
    <marker
       inkscape:stockid="Arrow1Sstart"
       orient="auto"
       refY="0"
       refX="0"
       id="Arrow1Sstart-0"
       style="overflow:visible"
       inkscape:isstock="true">
      <path
         inkscape:connector-curvature="0"
         id="path5517-5"
         d="M 0,0 5,-5 -12.5,0 5,5 0,0 Z"
         style="fill:#000000;fill-opacity:1;fill-rule:evenodd;stroke:#000000;stroke-width:1pt;stroke-opacity:1"
         transform="matrix(0.2,0,0,0.2,1.2,0)" />
    </marker>
    <marker
       inkscape:stockid="Arrow1Send"
       orient="auto"
       refY="0"
       refX="0"
       id="Arrow1Send-8"
       style="overflow:visible"
       inkscape:isstock="true">
      <path
         inkscape:connector-curvature="0"
         id="path5520-85"
         d="M 0,0 5,-5 -12.5,0 5,5 0,0 Z"
         style="fill:#000000;fill-opacity:1;fill-rule:evenodd;stroke:#000000;stroke-width:1pt;stroke-opacity:1"
         transform="matrix(-0.2,0,0,-0.2,-1.2,0)" />
    </marker>
    <marker
       inkscape:stockid="Arrow1Sstart"
       orient="auto"
       refY="0"
       refX="0"
       id="Arrow1Sstart-0-8"
       style="overflow:visible"
       inkscape:isstock="true">
      <path
         inkscape:connector-curvature="0"
         id="path5517-5-5"
         d="M 0,0 5,-5 -12.5,0 5,5 0,0 Z"
         style="fill:#000000;fill-opacity:1;fill-rule:evenodd;stroke:#000000;stroke-width:1pt;stroke-opacity:1"
         transform="matrix(0.2,0,0,0.2,1.2,0)" />
    </marker>
    <marker
       inkscape:stockid="Arrow1Send"
       orient="auto"
       refY="0"
       refX="0"
       id="Arrow1Send-8-7"
       style="overflow:visible"
       inkscape:isstock="true">
      <path
         inkscape:connector-curvature="0"
         id="path5520-85-4"
         d="M 0,0 5,-5 -12.5,0 5,5 0,0 Z"
         style="fill:#000000;fill-opacity:1;fill-rule:evenodd;stroke:#000000;stroke-width:1pt;stroke-opacity:1"
         transform="matrix(-0.2,0,0,-0.2,-1.2,0)" />
    </marker>
    <marker
       inkscape:stockid="Arrow1Sstart"
       orient="auto"
       refY="0"
       refX="0"
       id="marker5897-5"
       style="overflow:visible"
       inkscape:isstock="true">
      <path
         inkscape:connector-curvature="0"
         id="path5899-1"
         d="M 0,0 5,-5 -12.5,0 5,5 0,0 Z"
         style="fill:#786721;fill-opacity:1;fill-rule:evenodd;stroke:#786721;stroke-width:1pt;stroke-opacity:1"
         transform="matrix(0.2,0,0,0.2,1.2,0)" />
    </marker>
    <marker
       inkscape:stockid="Arrow1Send"
       orient="auto"
       refY="0"
       refX="0"
       id="marker5901-0"
       style="overflow:visible"
       inkscape:isstock="true">
      <path
         inkscape:connector-curvature="0"
         id="path5903-2"
         d="M 0,0 5,-5 -12.5,0 5,5 0,0 Z"
         style="fill:#786721;fill-opacity:1;fill-rule:evenodd;stroke:#786721;stroke-width:1pt;stroke-opacity:1"
         transform="matrix(-0.2,0,0,-0.2,-1.2,0)" />
    </marker>
    <marker
       inkscape:stockid="Arrow1Sstart"
       orient="auto"
       refY="0"
       refX="0"
       id="marker5897-5-4"
       style="overflow:visible"
       inkscape:isstock="true">
      <path
         inkscape:connector-curvature="0"
         id="path5899-1-9"
         d="M 0,0 5,-5 -12.5,0 5,5 0,0 Z"
         style="fill:#786721;fill-opacity:1;fill-rule:evenodd;stroke:#786721;stroke-width:1pt;stroke-opacity:1"
         transform="matrix(0.2,0,0,0.2,1.2,0)" />
    </marker>
    <marker
       inkscape:stockid="Arrow1Send"
       orient="auto"
       refY="0"
       refX="0"
       id="marker5901-0-3"
       style="overflow:visible"
       inkscape:isstock="true">
      <path
         inkscape:connector-curvature="0"
         id="path5903-2-9"
         d="M 0,0 5,-5 -12.5,0 5,5 0,0 Z"
         style="fill:#786721;fill-opacity:1;fill-rule:evenodd;stroke:#786721;stroke-width:1pt;stroke-opacity:1"
         transform="matrix(-0.2,0,0,-0.2,-1.2,0)" />
    </marker>
    <marker
       inkscape:stockid="Arrow1Sstart"
       orient="auto"
       refY="0"
       refX="0"
       id="marker5897-5-4-0"
       style="overflow:visible"
       inkscape:isstock="true">
      <path
         inkscape:connector-curvature="0"
         id="path5899-1-9-4"
         d="M 0,0 5,-5 -12.5,0 5,5 0,0 Z"
         style="fill:#786721;fill-opacity:1;fill-rule:evenodd;stroke:#786721;stroke-width:1pt;stroke-opacity:1"
         transform="matrix(0.2,0,0,0.2,1.2,0)" />
    </marker>
    <marker
       inkscape:stockid="Arrow1Send"
       orient="auto"
       refY="0"
       refX="0"
       id="marker5901-0-3-0"
       style="overflow:visible"
       inkscape:isstock="true">
      <path
         inkscape:connector-curvature="0"
         id="path5903-2-9-2"
         d="M 0,0 5,-5 -12.5,0 5,5 0,0 Z"
         style="fill:#786721;fill-opacity:1;fill-rule:evenodd;stroke:#786721;stroke-width:1pt;stroke-opacity:1"
         transform="matrix(-0.2,0,0,-0.2,-1.2,0)" />
    </marker>
    <linearGradient
       inkscape:collect="always"
       xlink:href="#linearGradient6216"
       id="linearGradient6222"
       x1="38.478527"
       y1="502.3558"
       x2="39.263805"
       y2="1.349678"
       gradientUnits="userSpaceOnUse" />
    <linearGradient
       inkscape:collect="always"
       xlink:href="#linearGradient6232"
       id="linearGradient6238"
       x1="108.3681"
       y1="431.681"
       x2="108.3681"
       y2="361.79141"
       gradientUnits="userSpaceOnUse"
       gradientTransform="translate(0,552.36222)" />
    <linearGradient
       inkscape:collect="always"
       xlink:href="#linearGradient6240"
       id="linearGradient6246"
       x1="143.70552"
       y1="177.25154"
       x2="143.70552"
       y2="105.79141"
       gradientUnits="userSpaceOnUse"
       gradientTransform="translate(0,552.36222)" />
    <linearGradient
       inkscape:collect="always"
       xlink:href="#linearGradient6248"
       id="linearGradient6254"
       x1="886.57666"
       y1="174.89571"
       x2="887.36194"
       y2="90.085892"
       gradientUnits="userSpaceOnUse"
       gradientTransform="translate(0,552.36222)" />
    <linearGradient
       inkscape:collect="always"
       xlink:href="#linearGradient6256"
       id="linearGradient6262"
       x1="884.22089"
       y1="432.46625"
       x2="884.22089"
       y2="368.85889"
       gradientUnits="userSpaceOnUse"
       gradientTransform="translate(0,552.36222)" />
  </defs>
  <sodipodi:namedview
     id="base"
     pagecolor="#ffffff"
     bordercolor="#666666"
     borderopacity="1.0"
     inkscape:pageopacity="0"
     inkscape:pageshadow="2"
     inkscape:zoom="1.2734375"
     inkscape:cx="512"
     inkscape:cy="250"
     inkscape:document-units="px"
     inkscape:current-layer="layer1"
     showgrid="false"
     units="px"
     inkscape:window-width="1920"
     inkscape:window-height="1057"
     inkscape:window-x="-8"
     inkscape:window-y="-8"
     inkscape:window-maximized="1" />
  <metadata
     id="metadata7">
    <rdf:RDF>
      <cc:Work
         rdf:about="">
        <dc:format>image/svg+xml</dc:format>
        <dc:type
           rdf:resource="http://purl.org/dc/dcmitype/StillImage" />
        <dc:title />
      </cc:Work>
    </rdf:RDF>
  </metadata>
  <g
     inkscape:groupmode="layer"
     id="layer2"
     inkscape:label="Background">
    <rect
       style="opacity:1;fill:url(#linearGradient6222);fill-opacity:1;fill-rule:nonzero;stroke:#000000;stroke-width:0;stroke-linejoin:round;stroke-miterlimit:4;stroke-dasharray:none;stroke-opacity:0.50697674"
       id="rect5987"
       width="1024"
       height="499.99997"
       x="2.3342584e-005"
       y="-2.6843614e-005" />
  </g>
  <g
     inkscape:label="Layer 1"
     inkscape:groupmode="layer"
     id="layer1"
     transform="translate(0,-552.36224)"
     style="display:inline">
    <g
       id="g6351">
      <path
         inkscape:connector-curvature="0"
         id="path6131"
         d="m 818.88589,685.82725 0,-41.61963 62.82209,0 62.82208,0 0,41.61963 0,41.61963 -62.82208,0 -62.82209,0 0,-41.61963 z"
         style="opacity:1;fill:url(#linearGradient6254);fill-opacity:1;fill-rule:nonzero;stroke:#000000;stroke-width:0;stroke-linejoin:round;stroke-miterlimit:4;stroke-dasharray:none;stroke-opacity:0.50697674" />
      <path
         inkscape:connector-curvature="0"
         id="path6304"
         d="m 854.22331,763.17694 0,-6.67484 7.06749,0 7.06748,0 0,-7.46013 0,-7.46012 -26.33803,0 c -24.29542,0 -26.56399,-0.11532 -29.25153,-1.48699 -3.59872,-1.8367 -5.25132,-3.62059 -6.80994,-7.35088 -1.03798,-2.48425 -1.20786,-9.05224 -1.20786,-46.70037 0,-26.27065 0.30819,-44.88414 0.76981,-46.49372 0.86509,-3.01639 4.05749,-6.70667 7.24027,-8.36943 1.77755,-0.92863 12.95443,-1.10572 69.1043,-1.09489 l 66.98378,0.0129 3.1251,1.76996 c 1.75222,0.9924 3.90265,3.14283 4.89506,4.89505 l 1.76996,3.1251 0.013,45.78133 c 0.0107,37.89985 -0.17779,46.14639 -1.09488,47.90184 -1.48744,2.84717 -5.06955,6.15165 -7.77768,7.17485 -1.39875,0.52847 -11.70948,0.83523 -28.07366,0.83523 l -25.86299,0 0,7.46012 0,7.46013 7.06749,0 7.06748,0 0,6.67484 0,6.67485 -27.8773,0 -27.8773,0 0,-6.67485 z m 91.09203,-77.34969 0,-42.40491 -63.60736,0 -63.60737,0 0,42.40491 0,42.40491 63.60737,0 63.60736,0 0,-42.40491 z"
         style="opacity:1;fill:#333333;fill-opacity:1;fill-rule:nonzero;stroke:#786721;stroke-width:0;stroke-linejoin:round;stroke-miterlimit:4;stroke-dasharray:none;stroke-opacity:1" />
    </g>
    <text
       xml:space="preserve"
       style="font-style:normal;font-variant:normal;font-weight:100;font-stretch:normal;font-size:60px;line-height:1000%;font-family:'AR CENA';-inkscape-font-specification:'AR CENA, Thin';text-align:start;letter-spacing:0px;word-spacing:0px;writing-mode:lr-tb;text-anchor:start;fill:#786721;fill-opacity:1;stroke:none;stroke-width:1px;stroke-linecap:butt;stroke-linejoin:miter;stroke-opacity:1"
       x="347.69235"
       y="602.5462"
       id="text5495"
       sodipodi:linespacing="1000%"><tspan
         sodipodi:role="line"
         id="tspan5497"
         x="347.69235"
         y="602.5462">Pushy Clipboard</tspan></text>
    <g
       id="g6360">
      <path
         inkscape:connector-curvature="0"
         id="path5895"
         d="M 269.34969,936.14136 398.92025,870.17817"
         style="fill:#786721;fill-opacity:1;fill-rule:evenodd;stroke:#786721;stroke-width:10;stroke-linecap:butt;stroke-linejoin:miter;stroke-miterlimit:4;stroke-dasharray:none;stroke-opacity:1;marker-start:url(#marker5897);marker-end:url(#marker5901)" />
      <path
         inkscape:connector-curvature="0"
         id="path5895-9"
         d="M 625.47239,752.38676 755.04295,686.42357"
         style="fill:#786721;fill-opacity:1;fill-rule:evenodd;stroke:#786721;stroke-width:10;stroke-linecap:butt;stroke-linejoin:miter;stroke-miterlimit:4;stroke-dasharray:none;stroke-opacity:1;marker-start:url(#marker5897-5);marker-end:url(#marker5901-0)" />
      <path
         inkscape:connector-curvature="0"
         id="path5895-9-3"
         d="M 757.39877,936.14136 627.82822,870.17817"
         style="fill:#786721;fill-opacity:1;fill-rule:evenodd;stroke:#786721;stroke-width:10;stroke-linecap:butt;stroke-linejoin:miter;stroke-miterlimit:4;stroke-dasharray:none;stroke-opacity:1;marker-start:url(#marker5897-5-4);marker-end:url(#marker5901-0-3)" />
      <path
         inkscape:connector-curvature="0"
         id="path5895-9-3-5"
         d="M 398.92025,752.38676 269.34969,686.42357"
         style="fill:#786721;fill-opacity:1;fill-rule:evenodd;stroke:#786721;stroke-width:10;stroke-linecap:butt;stroke-linejoin:miter;stroke-miterlimit:4;stroke-dasharray:none;stroke-opacity:1;marker-start:url(#marker5897-5-4-0);marker-end:url(#marker5901-0-3-0)" />
    </g>
    <g
       id="g6373">
      <g
         transform="translate(0,-32.478528)"
         id="g5800">
        <g
           style="display:inline"
           id="g4255"
           transform="matrix(3.515625,0,0,3.515625,427.625,244.06956)">
          <path
             inkscape:connector-curvature="0"
             id="rect4140-0"
             d="m 7.492632,151.34297 33.014736,0 0,38.39622 -33.014736,0 z"
             style="display:inline;fill:#4d4d4d;fill-opacity:0.71573606;stroke:#a86030;stroke-width:4;stroke-linejoin:round;stroke-miterlimit:4;stroke-dasharray:none;stroke-opacity:1" />
          <path
             inkscape:connector-curvature="0"
             id="rect4140"
             d="m 7.4926322,150.6428 33.0147358,0 0,38 -33.014736,0 z"
             style="display:inline;fill:#c87137;fill-opacity:1;stroke:#c87137;stroke-width:4;stroke-linejoin:round;stroke-miterlimit:4;stroke-dasharray:none;stroke-opacity:1" />
        </g>
        <g
           style="display:inline"
           id="g4251"
           transform="matrix(3.515625,0,0,3.515625,427.625,750.31956)">
          <rect
             style="display:inline;opacity:1;fill:#000000;fill-opacity:0.10196078;stroke:#000000;stroke-width:0;stroke-linejoin:miter;stroke-miterlimit:4;stroke-dasharray:none;stroke-opacity:1"
             id="rect4228-5"
             width="29.919594"
             height="34.452816"
             x="9.0402031"
             y="9.7932835" />
          <rect
             style="display:inline;opacity:1;fill:#ffffff;fill-opacity:1;stroke:#ffffff;stroke-width:1;stroke-linejoin:miter;stroke-miterlimit:4;stroke-dasharray:none;stroke-opacity:1"
             id="rect4228"
             width="28.887884"
             height="33.999989"
             x="9.5560589"
             y="8.5515995" />
        </g>
        <rect
           style="display:inline;fill:none;fill-opacity:1;stroke:#ffffff;stroke-width:7.03125;stroke-linejoin:round;stroke-miterlimit:4;stroke-dasharray:none;stroke-opacity:1"
           id="rect3962"
           width="41.089653"
           height="60.848103"
           x="502.80643"
           y="800.31036" />
        <path
           style="display:inline;fill:none;fill-rule:evenodd;stroke:#ffffff;stroke-width:7.03125;stroke-linecap:butt;stroke-linejoin:round;stroke-miterlimit:4;stroke-dasharray:none;stroke-opacity:1"
           d="m 536.8622,791.04907 -41.76238,0.40835 -0.38314,60.64048"
           id="path3964"
           inkscape:connector-curvature="0" />
        <path
           style="color:#000000;font-style:normal;font-variant:normal;font-weight:normal;font-stretch:normal;font-size:medium;line-height:normal;font-family:sans-serif;text-indent:0;text-align:start;text-decoration:none;text-decoration-line:none;text-decoration-style:solid;text-decoration-color:#000000;letter-spacing:normal;word-spacing:normal;text-transform:none;direction:ltr;block-progression:tb;writing-mode:lr-tb;baseline-shift:baseline;text-anchor:start;white-space:normal;clip-rule:nonzero;display:inline;overflow:visible;visibility:visible;opacity:1;isolation:auto;mix-blend-mode:normal;color-interpolation:sRGB;color-interpolation-filters:linearRGB;solid-color:#000000;solid-opacity:1;fill:#000000;fill-opacity:0;fill-rule:nonzero;stroke:none;stroke-width:2.33460617;stroke-linecap:butt;stroke-linejoin:round;stroke-miterlimit:4;stroke-dasharray:none;stroke-dashoffset:0;stroke-opacity:1;color-rendering:auto;image-rendering:auto;shape-rendering:auto;text-rendering:auto;enable-background:accumulate"
           d="m 536.60937,873.65483 9.95636,0 c 2.2687,7.8e-4 4.10791,-1.34941 4.10614,-3.01438 l -9.03505,-57.0483 c -9.03504,-7.02156 -8.93654,-7.01696 -8.83834,-7.00888 0.13573,0.009 0.27095,0.0253 0.40512,0.0481 0.13415,0.0232 0.26708,0.0529 0.39825,0.0893 0.13257,0.0369 0.26318,0.0804 0.39139,0.13047 0.12856,0.0486 0.2546,0.10357 0.37765,0.16477 0.12006,0.0629 0.23692,0.13159 0.35019,0.20598 0.11612,0.0744 0.22841,0.15462 0.33645,0.24033 0.10737,0.0841 0.21051,0.17346 0.30899,0.26779 0.0989,0.0959 0.19279,0.19677 0.28153,0.30213 0.0877,0.10343 0.17019,0.21115 0.24718,0.32273 0.0768,0.1131 0.1478,0.23 0.21287,0.3502 0.0657,0.12055 0.12526,0.2443 0.17853,0.37079 0.0521,0.12582 0.0979,0.25414 0.13732,0.38452 0.0409,0.13095 0.0753,0.26388 0.103,0.39825 0.0274,0.13395 0.048,0.26912 0.0618,0.40512 0.0137,0.1369 0.0207,0.27439 0.0207,0.41199 z"
           id="path4742"
           inkscape:connector-curvature="0"
           sodipodi:nodetypes="ccccccccccccccccccccc" />
        <path
           inkscape:connector-curvature="0"
           id="rect5370"
           d="m 511.95759,751.52886 a 15.70846,15.044504 0 0 0 -15.70847,15.04449 l -15.70846,0 0,17.19376 62.83386,0 0,-17.19376 -15.70847,0 a 15.70846,15.044504 0 0 0 -15.70846,-15.04449 z m 0,8.59683 a 6.7321941,6.4476418 0 0 1 6.7322,6.44766 6.7321941,6.4476418 0 0 1 -6.7322,6.44766 6.7321941,6.4476418 0 0 1 -6.7322,-6.44766 6.7321941,6.4476418 0 0 1 6.7322,-6.44766 z"
           style="opacity:1;fill:#666666;fill-opacity:1;stroke:#c87137;stroke-width:0;stroke-linejoin:miter;stroke-miterlimit:4;stroke-dasharray:none;stroke-opacity:1" />
      </g>
      <g
         id="g6366">
        <rect
           style="opacity:1;fill:#4d4d4d;fill-opacity:1;fill-rule:nonzero;stroke:#000000;stroke-width:0;stroke-linejoin:round;stroke-miterlimit:4;stroke-dasharray:none;stroke-opacity:0.50697674"
           id="rect6139"
           width="87.999992"
           height="5.9999905"
           x="466.45398"
           y="759.73645" />
        <rect
           style="opacity:1;fill:#4d4d4d;fill-opacity:1;fill-rule:nonzero;stroke:#000000;stroke-width:0;stroke-linejoin:round;stroke-miterlimit:4;stroke-dasharray:none;stroke-opacity:0.50697674"
           id="rect6139-3"
           width="55.999992"
           height="5.9999924"
           x="466.45398"
           y="787.15057" />
        <rect
           style="opacity:1;fill:#4d4d4d;fill-opacity:1;fill-rule:nonzero;stroke:#000000;stroke-width:0;stroke-linejoin:round;stroke-miterlimit:4;stroke-dasharray:none;stroke-opacity:0.50697674"
           id="rect6139-2"
           width="79.999992"
           height="5.9999909"
           x="466.45398"
           y="814.5647" />
        <rect
           style="opacity:1;fill:#4d4d4d;fill-opacity:1;fill-rule:nonzero;stroke:#000000;stroke-width:0;stroke-linejoin:round;stroke-miterlimit:4;stroke-dasharray:none;stroke-opacity:0.50697674"
           id="rect6139-23"
           width="25.999994"
           height="5.9999952"
           x="466.45398"
           y="800.85767" />
        <rect
           style="opacity:1;fill:#4d4d4d;fill-opacity:1;fill-rule:nonzero;stroke:#000000;stroke-width:0;stroke-linejoin:round;stroke-miterlimit:4;stroke-dasharray:none;stroke-opacity:0.50697674"
           id="rect6139-21"
           width="49.999996"
           height="5.9999771"
           x="466.45398"
           y="773.44348" />
      </g>
    </g>
    <g
       id="g6347">
      <path
         style="fill:#333333"
         inkscape:connector-curvature="0"
         d="m 202.31135,999.53132 c 7.73438,0 14.0625,-6.32813 14.0625,-14.0625 l 0,-70.3125 c 0,-7.73438 -6.32812,-14.0625 -14.0625,-14.0625 l -112.499999,0 c -7.73437,0 -14.0625,6.32812 -14.0625,14.0625 l 0,70.3125 c 0,7.73437 6.32813,14.0625 14.0625,14.0625 l -28.125,0 0,14.06248 168.749999,0 0,-14.06248 -28.125,0 z m -112.499999,-84.375 112.499999,0 0,70.3125 -112.499999,0 0,-70.3125 z"
         id="path5464" />
      <path
         inkscape:connector-curvature="0"
         id="path6121"
         d="m 90.149693,950.46529 0,-34.55215 55.754597,0 55.75461,0 0,34.55215 0,34.55214 -55.75461,0 -55.754597,0 0,-34.55214 z"
         style="opacity:1;fill:url(#linearGradient6238);fill-opacity:1;fill-rule:nonzero;stroke:#000000;stroke-width:0;stroke-linejoin:round;stroke-miterlimit:4;stroke-dasharray:none;stroke-opacity:0.50697674" />
    </g>
    <g
       id="g6355">
      <path
         inkscape:connector-curvature="0"
         id="path6306"
         d="m 857.35221,1004.4675 c -1.48439,-1.0003 -3.50239,-3.011 -4.48444,-4.46832 l -1.78556,-2.64959 0,-40.20946 0,-40.20946 1.77321,-2.66827 c 0.97526,-1.46755 3.34707,-3.46337 5.27068,-4.43515 3.35037,-1.69255 4.32452,-1.76669 23.15931,-1.76249 10.81401,0.002 20.91431,0.35233 22.44513,0.7776 3.15744,0.87716 7.31552,4.81577 8.55504,8.1035 0.54696,1.45077 0.82751,15.35172 0.81619,40.44171 -0.016,35.58528 -0.11841,38.45385 -1.47904,41.44988 -0.80399,1.77035 -2.65145,4.06725 -4.10546,5.10425 -2.62202,1.8701 -2.82699,1.8874 -25.05492,2.1151 -22.31157,0.2285 -22.42327,0.2214 -25.11014,-1.5892 z m 33.77908,-8.84884 0,-2.74846 -9.42331,0 -9.42332,0 0,2.74846 0,2.74847 9.42332,0 9.42331,0 0,-2.74847 z m 14.52761,-42.79754 0,-31.80369 -23.75461,-0.20783 -23.7546,-0.20783 0,32.21935 0,32.21934 23.7546,-0.20783 23.75461,-0.20783 0,-31.80368 z"
         style="opacity:1;fill:#333333;fill-opacity:1;fill-rule:nonzero;stroke:#786721;stroke-width:0;stroke-linejoin:round;stroke-miterlimit:4;stroke-dasharray:none;stroke-opacity:1" />
      <path
         inkscape:connector-curvature="0"
         id="path6127"
         d="m 858.93497,952.82112 0,-31.41105 23.16564,0 23.16565,0 0,31.41105 0,31.41104 -23.16565,0 -23.16564,0 0,-31.41104 z"
         style="opacity:1;fill:url(#linearGradient6262);fill-opacity:1;fill-rule:nonzero;stroke:#000000;stroke-width:0;stroke-linejoin:round;stroke-miterlimit:4;stroke-dasharray:none;stroke-opacity:0.50697674" />
      <path
         transform="translate(0,552.36222)"
         inkscape:connector-curvature="0"
         id="path6338"
         d="m 872.28466,443.25644 0,-2.74846 9.42332,0 9.42331,0 0,2.74846 0,2.74847 -9.42331,0 -9.42332,0 0,-2.74847 z"
         style="opacity:1;fill:#666666;fill-opacity:1;fill-rule:nonzero;stroke:#786721;stroke-width:0;stroke-linejoin:round;stroke-miterlimit:4;stroke-dasharray:none;stroke-opacity:1" />
    </g>
    <g
       id="g6342">
      <path
         style="fill:#333333"
         inkscape:connector-curvature="0"
         d="m 173.06135,645.77327 -54,0 c -7.47,0 -13.5,6.03 -13.5,13.5 l 0,81 c 0,7.47 6.03,13.5 13.5,13.5 l 54,0 c 7.47,0 13.5,-6.03 13.5,-13.5 l 0,-81 c 0,-7.47 -6.03,-13.5 -13.5,-13.5 z m -18,99 -18,0 0,-4.5 18,0 0,4.5 z m 23.625,-13.5 -65.25,0 0,-72 65.25,0 0,72 z"
         id="path5486" />
      <path
         inkscape:connector-curvature="0"
         id="path6123"
         d="m 113.70798,695.25056 0,-35.33742 32.19631,0 32.19632,0 0,35.33742 0,35.33743 -32.19632,0 -32.19631,0 0,-35.33743 z"
         style="opacity:1;fill:url(#linearGradient6246);fill-opacity:1;fill-rule:nonzero;stroke:#000000;stroke-width:0;stroke-linejoin:round;stroke-miterlimit:4;stroke-dasharray:none;stroke-opacity:0.50697674" />
      <path
         transform="translate(0,552.36222)"
         inkscape:connector-curvature="0"
         id="path6340"
         d="m 137.26626,190.39755 0,-1.96319 8.63803,0 8.63804,0 0,1.96319 0,1.96319 -8.63804,0 -8.63803,0 0,-1.96319 z"
         style="opacity:1;fill:#666666;fill-opacity:1;fill-rule:nonzero;stroke:#786721;stroke-width:0;stroke-linejoin:round;stroke-miterlimit:4;stroke-dasharray:none;stroke-opacity:1" />
    </g>
  </g>
</svg>
