<?xml version="1.0" encoding="UTF-8" standalone="no"?>
<svg
   xmlns:dc="http://purl.org/dc/elements/1.1/"
   xmlns:cc="http://creativecommons.org/ns#"
   xmlns:rdf="http://www.w3.org/1999/02/22-rdf-syntax-ns#"
   xmlns:svg="http://www.w3.org/2000/svg"
   xmlns="http://www.w3.org/2000/svg"
   xmlns:sodipodi="http://sodipodi.sourceforge.net/DTD/sodipodi-0.dtd"
   xmlns:inkscape="http://www.inkscape.org/namespaces/inkscape"
   width="192"
   height="192"
   viewBox="0 0 192 192"
   id="svg6071"
   version="1.1"
   inkscape:version="0.91 r13725"
   sodipodi:docname="ic_add_device.svg"
   inkscape:export-filename="C:\Users\mike\Documents\GitHub\Clip-Man\assets\ic_remove_device.png"
   inkscape:export-xdpi="90"
   inkscape:export-ydpi="90">
  <metadata
     id="metadata6081">
    <rdf:RDF>
      <cc:Work
         rdf:about="">
        <dc:format>image/svg+xml</dc:format>
        <dc:type
           rdf:resource="http://purl.org/dc/dcmitype/StillImage" />
        <dc:title></dc:title>
      </cc:Work>
    </rdf:RDF>
  </metadata>
  <defs
     id="defs6079" />
  <sodipodi:namedview
     pagecolor="#ffffff"
     bordercolor="#666666"
     borderopacity="1"
     objecttolerance="10"
     gridtolerance="10"
     guidetolerance="10"
     inkscape:pageopacity="0"
     inkscape:pageshadow="2"
     inkscape:window-width="1920"
     inkscape:window-height="1057"
     id="namedview6077"
     showgrid="true"
     inkscape:zoom="4.625"
     inkscape:cx="46.162162"
     inkscape:cy="96"
     inkscape:window-x="-8"
     inkscape:window-y="-8"
     inkscape:window-maximized="1"
     inkscape:current-layer="svg6071">
    <inkscape:grid
       type="xygrid"
       id="grid7223" />
  </sodipodi:namedview>
  <path
     style="display:inline;fill:#0099cc;fill-opacity:1;stroke:#0099cc;stroke-width:18.22374725;stroke-linejoin:round;stroke-miterlimit:4;stroke-dasharray:none;stroke-opacity:1"
     d="m 162.60061,14.2569 -133.201219,0 0,163.4862 133.201219,0 z"
     id="path4213"
     inkscape:connector-curvature="0" />
  <path
     d="m 124.16,18.560001 -56.319998,0 c -11.6512,0 -21.12,9.4688 -21.12,21.12 l 0,112.639999 c 0,11.6512 9.4688,21.12 21.12,21.12 l 56.319998,0 c 11.6512,0 21.12,-9.4688 21.12,-21.12 l 0,-112.639999 c 0,-11.6512 -9.4688,-21.12 -21.12,-21.12 z M 110.08,159.36 l -28.159998,0 0,-7.04 28.159998,0 0,7.04 z m 22.88,-21.12 -73.919998,0 0,-98.559999 73.919998,0 0,98.559999 z"
     id="path6073"
     inkscape:connector-curvature="0" />
  <path
     d="m 0,144 48,0 0,48 -48,0 z"
     id="path6075"
     inkscape:connector-curvature="0"
     style="fill:none" />
</svg>
