<?xml version="1.0" encoding="UTF-8" standalone="no"?>
<svg
   xmlns:dc="http://purl.org/dc/elements/1.1/"
   xmlns:cc="http://creativecommons.org/ns#"
   xmlns:rdf="http://www.w3.org/1999/02/22-rdf-syntax-ns#"
   xmlns:svg="http://www.w3.org/2000/svg"
   xmlns="http://www.w3.org/2000/svg"
   xmlns:sodipodi="http://sodipodi.sourceforge.net/DTD/sodipodi-0.dtd"
   xmlns:inkscape="http://www.inkscape.org/namespaces/inkscape"
   width="24"
   height="24"
   viewBox="0 0 24 24"
   id="svg7479"
   version="1.1"
   inkscape:version="0.91 r13725"
   sodipodi:docname="ic_notification.svg">
  <metadata
     id="metadata7489">
    <rdf:RDF>
      <cc:Work
         rdf:about="">
        <dc:format>image/svg+xml</dc:format>
        <dc:type
           rdf:resource="http://purl.org/dc/dcmitype/StillImage" />
        <dc:title></dc:title>
      </cc:Work>
    </rdf:RDF>
  </metadata>
  <defs
     id="defs7487" />
  <sodipodi:namedview
     pagecolor="#9aa2a8"
     bordercolor="#666666"
     borderopacity="1"
     objecttolerance="10"
     gridtolerance="10"
     guidetolerance="10"
     inkscape:pageopacity="0"
     inkscape:pageshadow="2"
     inkscape:window-width="1920"
     inkscape:window-height="1057"
     id="namedview7485"
     showgrid="true"
     inkscape:zoom="9.8333333"
     inkscape:cx="12"
     inkscape:cy="12"
     inkscape:window-x="-8"
     inkscape:window-y="-8"
     inkscape:window-maximized="1"
     inkscape:current-layer="svg7479">
    <inkscape:grid
       type="xygrid"
       id="grid8031" />
  </sodipodi:namedview>
  <path
     d="M 19,3 14.82,3 C 14.4,1.84 13.3,1 12,1 10.7,1 9.6,1.84 9.18,3 L 5,3 C 3.9,3 3,3.9 3,5 l 0,16 c 0,1.1 0.9,2 2,2 l 14,0 c 1.1,0 2,-0.9 2,-2 L 21,5 C 21,3.9 20.1,3 19,3 Z m -7,0 c 0.55,0 1,0.45 1,1 0,0.55 -0.45,1 -1,1 -0.55,0 -1,-0.45 -1,-1 0,-0.55 0.45,-1 1,-1 z m 7,18 -14,0 0,-16 2,0 0,3 10,0 0,-3 2,0 0,16 z"
     id="path7481"
     inkscape:connector-curvature="0"
     style="fill-rule:nonzero;fill:#ffffff" />
  <path
     d="M0 0h24v24H0z"
     fill="none"
     id="path7483" />
</svg>
