<?xml version="1.0" encoding="UTF-8" standalone="no"?>
<svg
   xmlns:dc="http://purl.org/dc/elements/1.1/"
   xmlns:cc="http://creativecommons.org/ns#"
   xmlns:rdf="http://www.w3.org/1999/02/22-rdf-syntax-ns#"
   xmlns:svg="http://www.w3.org/2000/svg"
   xmlns="http://www.w3.org/2000/svg"
   xmlns:sodipodi="http://sodipodi.sourceforge.net/DTD/sodipodi-0.dtd"
   xmlns:inkscape="http://www.inkscape.org/namespaces/inkscape"
   width="48"
   height="48"
   viewBox="0 0 48 48"
   id="svg4136"
   version="1.1"
   inkscape:version="0.91 r13725"
   sodipodi:docname="lic_remove_device.svg">
  <metadata
     id="metadata4146">
    <rdf:RDF>
      <cc:Work
         rdf:about="">
        <dc:format>image/svg+xml</dc:format>
        <dc:type
           rdf:resource="http://purl.org/dc/dcmitype/StillImage" />
        <dc:title />
      </cc:Work>
    </rdf:RDF>
  </metadata>
  <defs
     id="defs4144" />
  <sodipodi:namedview
     pagecolor="#ffffff"
     bordercolor="#666666"
     borderopacity="1"
     objecttolerance="10"
     gridtolerance="10"
     guidetolerance="10"
     inkscape:pageopacity="0"
     inkscape:pageshadow="2"
     inkscape:window-width="1920"
     inkscape:window-height="1057"
     id="namedview4142"
     showgrid="false"
     inkscape:zoom="18.5"
     inkscape:cx="5.5675678"
     inkscape:cy="24"
     inkscape:window-x="-8"
     inkscape:window-y="-8"
     inkscape:window-maximized="1"
     inkscape:current-layer="svg4136" />
  <circle
     style="opacity:1;fill:#808080;fill-opacity:1;fill-rule:nonzero;stroke:#999999;stroke-width:0;stroke-linejoin:round;stroke-miterlimit:4;stroke-dasharray:none;stroke-opacity:1"
     id="path4148"
     cx="24"
     cy="24"
     r="23.999994" />
  <path
     d="M0 0h48v48H0z"
     fill="none"
     id="path4138" />
  <path
     style="color:#000000;font-style:normal;font-variant:normal;font-weight:normal;font-stretch:normal;font-size:medium;line-height:normal;font-family:sans-serif;text-indent:0;text-align:start;text-decoration:none;text-decoration-line:none;text-decoration-style:solid;text-decoration-color:#000000;letter-spacing:normal;word-spacing:normal;text-transform:none;direction:ltr;block-progression:tb;writing-mode:lr-tb;baseline-shift:baseline;text-anchor:start;white-space:normal;clip-rule:nonzero;display:inline;overflow:visible;visibility:visible;opacity:1;isolation:auto;mix-blend-mode:normal;color-interpolation:sRGB;color-interpolation-filters:linearRGB;solid-color:#000000;solid-opacity:1;fill:#ffffff;fill-opacity:1;fill-rule:nonzero;stroke:none;stroke-width:2;stroke-linecap:butt;stroke-linejoin:round;stroke-miterlimit:4;stroke-dasharray:none;stroke-dashoffset:0;stroke-opacity:1;color-rendering:auto;image-rendering:auto;shape-rendering:auto;text-rendering:auto;enable-background:accumulate"
     d="M 14.060547 11 A 1.0615459 1.0834416 0 0 0 13 12.083984 L 13 35.916016 A 1.0615459 1.0834416 0 0 0 14.060547 37 L 33.873047 37 A 1.0615459 1.0834416 0 0 0 34.923828 36.054688 A 1.0615459 1.0834416 0 0 0 35 35.650391 L 35 12.673828 A 1.0615459 1.0834416 0 0 0 34.933594 12.298828 L 34.933594 12.083984 A 1.0615459 1.0834416 0 0 0 33.873047 11 L 14.060547 11 z M 20 13 L 28 13 C 29.66 13 31 14.34 31 16 L 31 29.763672 L 33.457031 32.220703 L 32.220703 33.457031 L 30.978516 32.214844 C 30.866835 33.772169 29.586371 35 28 35 L 20 35 C 18.34 35 17 33.66 17 32 L 17 18.236328 L 14.542969 15.779297 L 15.779297 14.542969 L 17.021484 15.785156 C 17.133165 14.227831 18.413629 13 20 13 z M 18.75 16 L 18.75 17.513672 L 29.25 28.013672 L 29.25 16 L 18.75 16 z M 18.75 19.986328 L 18.75 30 L 28.763672 30 L 18.75 19.986328 z M 22 32 L 22 33 L 26 33 L 26 32 L 22 32 z "
     id="rect4150" />
</svg>
