<?xml version="1.0" encoding="UTF-8" standalone="no"?>
<svg
   xmlns:dc="http://purl.org/dc/elements/1.1/"
   xmlns:cc="http://creativecommons.org/ns#"
   xmlns:rdf="http://www.w3.org/1999/02/22-rdf-syntax-ns#"
   xmlns:svg="http://www.w3.org/2000/svg"
   xmlns="http://www.w3.org/2000/svg"
   xmlns:sodipodi="http://sodipodi.sourceforge.net/DTD/sodipodi-0.dtd"
   xmlns:inkscape="http://www.inkscape.org/namespaces/inkscape"
   width="48"
   height="48"
   viewBox="0 0 48 48"
   id="svg4136"
   version="1.1"
   inkscape:version="0.91 r13725"
   sodipodi:docname="lic_remote_copy.svg">
  <metadata
     id="metadata4146">
    <rdf:RDF>
      <cc:Work
         rdf:about="">
        <dc:format>image/svg+xml</dc:format>
        <dc:type
           rdf:resource="http://purl.org/dc/dcmitype/StillImage" />
        <dc:title />
      </cc:Work>
    </rdf:RDF>
  </metadata>
  <defs
     id="defs4144" />
  <sodipodi:namedview
     pagecolor="#ffffff"
     bordercolor="#666666"
     borderopacity="1"
     objecttolerance="10"
     gridtolerance="10"
     guidetolerance="10"
     inkscape:pageopacity="0"
     inkscape:pageshadow="2"
     inkscape:window-width="1920"
     inkscape:window-height="1057"
     id="namedview4142"
     showgrid="false"
     inkscape:zoom="18.5"
     inkscape:cx="5.5675678"
     inkscape:cy="24"
     inkscape:window-x="-8"
     inkscape:window-y="-8"
     inkscape:window-maximized="1"
     inkscape:current-layer="svg4136" />
  <circle
     style="opacity:1;fill:#808080;fill-opacity:1;fill-rule:nonzero;stroke:#999999;stroke-width:0;stroke-linejoin:round;stroke-miterlimit:4;stroke-dasharray:none;stroke-opacity:1"
     id="path4148"
     cx="24"
     cy="24"
     r="23.999994" />
  <path
     d="M0 0h48v48H0z"
     fill="none"
     id="path4138" />
  <path
     style="color:#000000;font-style:normal;font-variant:normal;font-weight:normal;font-stretch:normal;font-size:medium;line-height:normal;font-family:sans-serif;text-indent:0;text-align:start;text-decoration:none;text-decoration-line:none;text-decoration-style:solid;text-decoration-color:#000000;letter-spacing:normal;word-spacing:normal;text-transform:none;direction:ltr;block-progression:tb;writing-mode:lr-tb;baseline-shift:baseline;text-anchor:start;white-space:normal;clip-rule:nonzero;display:inline;overflow:visible;visibility:visible;opacity:1;isolation:auto;mix-blend-mode:normal;color-interpolation:sRGB;color-interpolation-filters:linearRGB;solid-color:#000000;solid-opacity:1;fill:#ffffff;fill-opacity:1;fill-rule:nonzero;stroke:none;stroke-width:2;stroke-linecap:butt;stroke-linejoin:round;stroke-miterlimit:4;stroke-dasharray:none;stroke-dashoffset:0;stroke-opacity:1;color-rendering:auto;image-rendering:auto;shape-rendering:auto;text-rendering:auto;enable-background:accumulate"
     d="M 8.2832031 11 L 12.773438 15.470703 L 12.773438 35.916016 A 1.0834416 1.0834416 0 0 0 13.855469 37 L 34.076172 37 A 1.0834416 1.0834416 0 0 0 35.148438 36.054688 A 1.0834416 1.0834416 0 0 0 35.226562 35.650391 L 35.226562 12.673828 A 1.0834416 1.0834416 0 0 0 35.158203 12.298828 L 35.158203 12.083984 A 1.0834416 1.0834416 0 0 0 34.076172 11 L 13.896484 11 L 13.855469 11 L 8.2832031 11 z M 16.5 13 L 28.5 13 L 28.5 15 L 16.5 15 L 16.5 29 L 14.5 29 L 14.5 15 C 14.5 13.9 15.4 13 16.5 13 z M 20.5 17 L 31.5 17 C 32.6 17 33.5 17.9 33.5 19 L 33.5 33 C 33.5 34.1 32.6 35 31.5 35 L 20.5 35 C 19.4 35 18.5 34.1 18.5 33 L 18.5 19 C 18.5 17.9 19.4 17 20.5 17 z M 20.5 19 L 20.5 33 L 31.5 33 L 31.5 19 L 20.5 19 z "
     id="rect4150" />
</svg>
